<svg width="774" height="538" viewBox="0 0 774 538" fill="none" xmlns="http://www.w3.org/2000/svg">
<path d="M749.083 152.118C739.539 172.11 733.479 249.598 703.269 248.082C673.059 246.565 631.827 137.177 604.076 144.836C576.325 152.496 594.797 265.925 570.064 284.847C545.33 303.768 513.162 228.207 485.355 235.658C457.548 243.109 466.632 321.502 436.59 320.611C406.548 319.72 368.233 221.218 341.153 231.38C314.072 241.542 333.628 359.018 306.604 369.389C279.579 379.759 241.421 281.842 211.435 281.159C181.448 280.477 192.768 367.211 162.669 366.112C132.571 365.012 94.1561 266.135 66.9638 275.88C39.7716 285.625 39.4002 384.344 32.1466 412.887" stroke="url(#paint0_linear_153_3)" stroke-width="2" stroke-linecap="round"/>
<path d="M711.486 109.752C705.238 129.849 710.104 203.527 681.494 206.219C652.885 208.911 599.209 111.689 574.162 122.673C549.116 133.657 581.945 237.782 561.271 258.943C540.596 280.104 500.053 213.449 474.926 224.245C449.798 235.041 469.025 307.505 440.659 310.762C412.292 314.02 362.843 226.635 338.768 239.88C314.693 253.126 349.093 360.907 325.099 374.341C301.105 387.775 251.882 300.918 223.596 304.364C195.311 307.81 217.777 387.812 189.329 390.881C160.882 393.95 111.287 306.226 87.0498 319.095C62.8129 331.963 75.9209 424.826 72.9922 452.651" stroke="url(#paint1_linear_153_3)" stroke-width="2" stroke-linecap="round"/>
<path d="M669.579 75.5836C666.453 95.2757 681.03 163.692 654.573 170.105C628.116 176.518 564.575 92.6632 542.586 106.366C520.596 120.07 565.53 213.23 549.023 235.881C532.516 258.531 485.443 201.549 463.352 215.087C441.261 228.624 469.138 293.95 442.986 300.86C416.834 307.77 358.592 232.564 337.821 248.255C317.05 263.947 363.954 360.322 343.284 376.179C322.614 392.036 264.657 317.293 238.606 324.369C212.555 331.445 244.494 403.398 218.24 410.143C191.986 416.887 133.562 341.382 112.588 356.742C91.6134 372.102 116.527 457.386 117.563 483.871" stroke="url(#paint2_linear_153_3)" stroke-width="2" stroke-linecap="round"/>
<path d="M624.908 49.9236C624.655 68.7528 647.552 130.724 623.693 140.304C599.833 149.884 529.079 80.1176 510.383 95.9056C491.687 111.694 546.311 192.679 533.952 216.086C521.593 239.494 469.873 192.614 451.06 208.261C432.246 223.908 467.155 281.188 443.648 291.191C420.141 301.194 355.512 238.794 338.224 256.275C320.936 273.756 377.837 357.479 360.667 375.101C343.496 392.723 279.196 330.718 255.806 340.862C232.416 351.006 272.019 413.93 248.395 423.792C224.77 433.654 159.93 370.999 142.408 388.198C124.885 405.397 159.729 481.733 164.287 506.347" stroke="url(#paint3_linear_153_3)" stroke-width="2" stroke-linecap="round"/>
<path d="M579.008 32.8144C581.315 50.3868 611.011 105.017 590.082 117.162C569.152 129.307 493.827 73.8801 478.545 91.1106C463.263 108.341 525.079 176.397 516.728 199.868C508.378 223.34 453.873 186.659 438.463 203.774C423.052 220.889 463.304 269.528 442.759 282.019C422.214 294.511 353.59 245.117 339.848 263.735C326.106 282.352 390.413 352.65 376.799 371.383C363.186 390.116 294.921 341.045 274.505 353.653C254.088 366.26 299.474 419.522 278.801 431.898C258.128 444.274 189.272 394.672 175.274 413.058C161.275 431.445 204.039 497.841 211.609 520.152" stroke="url(#paint4_linear_153_3)" stroke-width="2" stroke-linecap="round"/>
<path d="M533.373 24.0378C537.878 40.0312 572.779 86.7221 554.994 100.806C537.21 114.89 459.867 73.5975 448.006 91.6397C436.145 109.682 502.653 164.508 498.063 187.408C493.473 210.308 437.969 183.609 425.974 201.561C413.979 219.513 457.867 259.225 440.486 273.579C423.105 287.932 352.791 251.336 342.546 270.458C332.301 289.58 401.421 346.151 391.31 365.363C381.2 384.575 311.263 348.231 294.016 362.674C276.77 377.118 326.044 420.428 308.528 434.692C291.013 448.956 220.456 412.198 209.942 431.14C199.427 450.081 248.035 505.931 258.06 525.613" stroke="url(#paint5_linear_153_3)" stroke-width="2" stroke-linecap="round"/>
<path d="M489.395 23.1313C495.697 37.3007 534.188 75.7536 519.647 91.1443C505.106 106.535 428.136 78.7528 419.597 97.0063C411.058 115.26 479.832 156.994 478.66 178.761C477.487 200.528 422.643 183.3 413.968 201.488C405.293 219.677 451.15 250.48 437.018 266.066C422.886 281.652 353.037 257.266 346.134 276.3C339.232 295.335 410.653 338.331 403.888 357.431C397.122 376.53 327.655 352.326 313.659 367.977C299.664 383.628 350.977 417.034 336.709 432.555C322.44 448.076 252.346 423.573 245.171 442.477C237.996 461.381 290.374 506.458 302.269 523.295" stroke="url(#paint6_linear_153_3)" stroke-width="2" stroke-linecap="round"/>
<path d="M448.336 29.4123C456.015 41.5936 496.511 71.8018 485.198 87.8828C473.886 103.964 399.452 88.6887 394.037 106.601C388.622 124.513 457.384 153.701 459.207 173.861C461.03 194.02 408.335 185.495 402.786 203.366C397.237 221.236 443.482 243.433 432.572 259.639C421.662 275.845 354.224 262.742 350.418 281.153C346.611 299.565 417.973 329.561 414.301 348.014C410.628 366.467 343.566 353.481 332.79 369.728C322.014 385.976 373.62 409.837 362.576 426.001C351.532 442.166 283.853 428.988 279.778 447.316C275.703 465.644 329.843 500.089 343.018 513.977" stroke="url(#paint7_linear_153_3)" stroke-width="2" stroke-linecap="round"/>
<path d="M411.295 42.0067C419.924 52.1174 460.919 74.3496 452.715 90.5382C444.511 106.727 374.49 102.632 371.916 119.712C369.342 136.793 436.024 154.349 440.359 172.524C444.694 190.698 395.427 189.891 392.725 206.951C390.023 224.011 435.209 238.163 427.389 254.412C419.569 270.662 356.227 267.625 355.189 284.948C354.15 302.272 423.314 320.221 422.403 337.565C421.493 354.909 358.509 351.928 350.817 368.198C343.125 384.468 393.429 399.431 385.481 415.66C377.533 431.889 313.961 428.815 312.667 446.098C311.372 463.381 365.392 487.676 379.267 498.618" stroke="url(#paint8_linear_153_3)" stroke-width="2" stroke-linecap="round"/>
<path d="M379.185 59.8805C388.343 67.9177 428.457 82.6941 423.144 98.4592C417.831 114.224 353.771 119.72 353.683 135.553C353.594 151.387 416.396 158.543 422.719 174.46C429.043 190.378 384.242 196.125 384.035 211.957C383.828 227.789 426.681 234.684 421.724 250.454C416.768 266.223 358.906 271.8 360.242 287.652C361.579 303.504 426.684 310.69 428.139 326.544C429.594 342.398 372.065 347.979 367.227 363.75C362.389 379.521 409.992 386.478 404.916 402.247C399.841 418.015 341.765 423.589 342.864 439.438C343.963 455.287 396.164 470.221 410.191 478.322" stroke="url(#paint9_linear_153_3)" stroke-width="2" stroke-linecap="round"/>
<path d="M352.688 81.8781C361.975 87.9144 399.993 95.9757 397.269 110.852C394.546 125.729 337.629 139.03 339.615 153.286C341.6 167.543 399.035 165.789 406.801 179.285C414.566 192.78 375.01 203.795 376.889 218.066C378.768 232.337 418.222 232.95 415.819 247.784C413.417 262.619 362.087 275.184 365.357 289.271C368.627 303.359 428.139 301.331 431.516 315.405C434.893 329.479 383.863 342.004 381.568 356.824C379.272 371.645 423.008 371.694 420.498 386.543C417.989 401.391 366.466 413.981 369.522 428.097C372.578 442.213 421.491 448.84 435.167 454.298" stroke="url(#paint10_linear_153_3)" stroke-width="2" stroke-linecap="round"/>
<path d="M332.275 106.764C341.327 110.941 376.23 113.212 375.725 126.814C375.221 140.416 326.243 159.613 329.853 172.055C333.463 184.497 384.393 175.517 393.053 186.535C401.712 197.552 367.902 212.472 371.419 224.94C374.935 237.408 410.155 232.859 409.931 246.382C409.707 259.905 365.611 277.725 370.343 289.851C375.075 301.976 427.82 292.485 432.645 304.583C437.471 316.682 393.636 334.429 393.506 347.926C393.375 361.422 432.336 355.818 432.018 369.368C431.701 382.917 387.436 400.785 391.982 412.963C396.527 425.141 440.948 424.727 453.834 427.822" stroke="url(#paint11_linear_153_3)" stroke-width="2" stroke-linecap="round"/>
<path d="M318.163 133.263C326.659 135.783 357.652 133.328 358.943 145.358C360.234 157.388 319.597 180.523 324.36 191.007C329.122 201.492 372.78 187.096 381.803 195.684C390.826 204.271 362.987 221.708 367.67 232.228C372.354 242.747 402.757 234.253 404.284 246.178C405.812 258.103 369.294 279.403 375.003 289.466C380.713 299.529 425.901 284.452 431.689 294.48C437.477 304.508 401.18 325.71 402.787 337.6C404.393 349.49 437.952 339.59 439.401 351.55C440.85 363.51 404.19 384.874 409.741 395.007C415.293 405.14 454.317 399.11 466.048 400.19" stroke="url(#paint12_linear_153_3)" stroke-width="2" stroke-linecap="round"/>
<path d="M310.348 160.101C318.021 161.217 344.551 155.2 347.18 165.455C349.808 175.711 317.524 200.846 322.965 209.327C328.405 217.808 364.402 199.861 373.294 206.164C382.186 212.468 360.268 231.062 365.644 239.584C371.021 248.105 396.281 236.932 399.102 247.067C401.922 257.201 372.974 280.231 379.181 288.228C385.389 296.226 422.626 277.496 428.897 285.453C435.168 293.41 406.399 316.327 409.284 326.421C412.168 336.515 439.984 323.729 442.741 333.904C445.497 344.079 416.434 367.182 422.514 375.259C428.593 383.337 461.629 373.215 471.923 372.677" stroke="url(#paint13_linear_153_3)" stroke-width="2" stroke-linecap="round"/>
<path d="M308.587 186.052C315.233 186.054 336.997 177.687 340.488 186.063C343.979 194.439 319.685 219.732 325.343 226.257C331.001 232.782 359.33 213.13 367.647 217.384C375.965 221.637 359.66 240.106 365.269 246.674C370.878 253.241 390.931 240.656 394.57 248.906C398.209 257.156 376.485 280.252 382.735 286.273C388.984 292.293 418.267 271.825 424.566 277.803C430.864 283.782 409.279 306.76 412.967 314.968C416.655 323.176 438.679 308.909 442.268 317.201C445.858 325.492 424.046 348.665 430.196 354.769C436.347 360.873 463.126 348.224 471.791 346.502" stroke="url(#paint14_linear_153_3)" stroke-width="2" stroke-linecap="round"/>
<path d="M312.414 209.968C317.895 209.176 334.844 199.673 338.725 206.163C342.605 212.653 325.594 236.417 331.041 241.122C336.487 245.827 357.5 226.232 364.868 228.746C372.237 231.259 360.998 248.44 366.409 253.186C371.82 257.931 386.853 245.155 390.841 251.523C394.828 257.892 379.675 279.537 385.548 283.755C391.422 287.973 413.125 267.591 419.034 271.768C424.944 275.945 409.89 297.477 413.913 303.805C417.936 310.133 434.393 295.733 438.345 302.143C442.296 308.552 427.079 330.27 432.881 334.569C438.684 338.868 459.256 325.234 466.196 322.777" stroke="url(#paint15_linear_153_3)" stroke-width="2" stroke-linecap="round"/>
<path d="M321.17 230.826C325.419 229.569 337.747 220.1 341.564 224.793C345.381 229.486 334.641 250.253 339.493 253.352C344.346 256.452 358.732 238.527 364.855 239.671C370.977 240.815 364.051 255.708 368.88 258.843C373.709 261.979 384.144 250.138 388.032 254.723C391.92 259.307 382.408 278.184 387.542 280.849C392.677 283.514 407.52 264.886 412.678 267.515C417.836 270.143 408.389 288.919 412.301 293.467C416.212 298.015 427.589 284.725 431.453 289.346C435.317 293.966 425.762 312.908 430.85 315.646C435.937 318.383 450.659 305.227 455.873 302.486" stroke="url(#paint16_linear_153_3)" stroke-width="2" stroke-linecap="round"/>
<path d="M334.032 247.751C337.05 246.361 345.181 238.005 348.52 241.078C351.858 244.151 346.121 260.721 350.057 262.499C353.992 264.277 362.741 249.424 367.408 249.614C372.076 249.805 368.538 261.604 372.459 263.412C376.381 265.22 382.852 255.308 386.232 258.292C389.611 261.276 384.582 276.311 388.679 277.737C392.777 279.162 401.79 263.738 405.901 265.135C410.012 266.531 405.021 281.483 408.414 284.438C411.807 287.393 418.821 276.304 422.186 279.318C425.552 282.332 420.498 297.419 424.569 298.904C428.64 300.388 438.151 289.039 441.725 286.443" stroke="url(#paint17_linear_153_3)" stroke-width="2" stroke-linecap="round"/>
<path d="M350.021 260.047C351.879 258.842 356.445 252.551 358.941 254.259C361.438 255.967 359.238 267.448 362.004 268.245C364.771 269.042 369.122 258.405 372.22 258.084C375.317 257.763 374.112 265.887 376.872 266.704C379.632 267.522 382.954 260.363 385.469 262.009C387.984 263.654 386.104 274.055 388.944 274.604C391.784 275.152 396.255 264.114 399.101 264.642C401.947 265.169 400.084 275.512 402.605 277.137C405.126 278.762 408.693 270.775 411.202 272.442C413.711 274.108 411.82 284.546 414.648 285.136C417.475 285.726 422.665 277.328 424.775 275.273" stroke="url(#paint18_linear_153_3)" stroke-width="2" stroke-linecap="round"/>
<path d="M368.058 267.223C368.891 266.493 370.699 263.053 372.056 263.719C373.414 264.385 373.149 270.224 374.576 270.42C376.002 270.615 377.392 265.04 378.901 264.659C380.411 264.278 380.398 268.384 381.822 268.59C383.247 268.797 384.377 265.016 385.739 265.65C387.102 266.284 386.918 271.566 388.362 271.633C389.807 271.701 391.227 265.918 392.673 265.975C394.119 266.032 393.94 271.283 395.304 271.907C396.668 272.53 397.86 268.322 399.221 268.966C400.582 269.611 400.395 274.912 401.837 275.001C403.278 275.09 405.244 270.562 406.14 269.394" stroke="url(#paint19_linear_153_3)" stroke-width="2" stroke-linecap="round"/>
<defs>
<linearGradient id="paint0_linear_153_3" x1="-35931.4" y1="10079.4" x2="-39877.1" y2="-4646.07" gradientUnits="userSpaceOnUse">
<stop offset="0.45" stop-color="#9116FE"/>
<stop offset="1" stop-color="#F5A524"/>
</linearGradient>
<linearGradient id="paint1_linear_153_3" x1="-32421.1" y1="14443.3" x2="-38138" y2="1136.72" gradientUnits="userSpaceOnUse">
<stop offset="0.45" stop-color="#9116FE"/>
<stop offset="1" stop-color="#F5A524"/>
</linearGradient>
<linearGradient id="paint2_linear_153_3" x1="-28445.8" y1="18018.2" x2="-35614.8" y2="6319.65" gradientUnits="userSpaceOnUse">
<stop offset="0.45" stop-color="#9116FE"/>
<stop offset="1" stop-color="#F5A524"/>
</linearGradient>
<linearGradient id="paint3_linear_153_3" x1="-24156.8" y1="20766.2" x2="-32442.8" y2="10803.4" gradientUnits="userSpaceOnUse">
<stop offset="0.45" stop-color="#9116FE"/>
<stop offset="1" stop-color="#F5A524"/>
</linearGradient>
<linearGradient id="paint4_linear_153_3" x1="-19705.8" y1="22675.5" x2="-28769.2" y2="14514.8" gradientUnits="userSpaceOnUse">
<stop offset="0.45" stop-color="#9116FE"/>
<stop offset="1" stop-color="#F5A524"/>
</linearGradient>
<linearGradient id="paint5_linear_153_3" x1="-15240.9" y1="23760.7" x2="-24747.7" y2="17408.5" gradientUnits="userSpaceOnUse">
<stop offset="0.45" stop-color="#9116FE"/>
<stop offset="1" stop-color="#F5A524"/>
</linearGradient>
<linearGradient id="paint6_linear_153_3" x1="-10901.9" y1="24060.7" x2="-20533.8" y2="19466.5" gradientUnits="userSpaceOnUse">
<stop offset="0.45" stop-color="#9116FE"/>
<stop offset="1" stop-color="#F5A524"/>
</linearGradient>
<linearGradient id="paint7_linear_153_3" x1="-6817.01" y1="23636.8" x2="-16280.5" y2="20698.3" gradientUnits="userSpaceOnUse">
<stop offset="0.45" stop-color="#9116FE"/>
<stop offset="1" stop-color="#F5A524"/>
</linearGradient>
<linearGradient id="paint8_linear_153_3" x1="-3098.87" y1="22570.3" x2="-12133.2" y2="21139.4" gradientUnits="userSpaceOnUse">
<stop offset="0.45" stop-color="#9116FE"/>
<stop offset="1" stop-color="#F5A524"/>
</linearGradient>
<linearGradient id="paint9_linear_153_3" x1="158.084" y1="20958.8" x2="-8225.91" y2="20849" gradientUnits="userSpaceOnUse">
<stop offset="0.45" stop-color="#9116FE"/>
<stop offset="1" stop-color="#F5A524"/>
</linearGradient>
<linearGradient id="paint10_linear_153_3" x1="2879.98" y1="18913.1" x2="-4677.27" y2="19908" gradientUnits="userSpaceOnUse">
<stop offset="0.45" stop-color="#9116FE"/>
<stop offset="1" stop-color="#F5A524"/>
</linearGradient>
<linearGradient id="paint11_linear_153_3" x1="5015.23" y1="16553.1" x2="-1587.43" y2="18415.2" gradientUnits="userSpaceOnUse">
<stop offset="0.45" stop-color="#9116FE"/>
<stop offset="1" stop-color="#F5A524"/>
</linearGradient>
<linearGradient id="paint12_linear_153_3" x1="6535.42" y1="14003.6" x2="964.651" y2="16483.9" gradientUnits="userSpaceOnUse">
<stop offset="0.45" stop-color="#9116FE"/>
<stop offset="1" stop-color="#F5A524"/>
</linearGradient>
<linearGradient id="paint13_linear_153_3" x1="7435.66" y1="11390.5" x2="2923.09" y2="14237.7" gradientUnits="userSpaceOnUse">
<stop offset="0.45" stop-color="#9116FE"/>
<stop offset="1" stop-color="#F5A524"/>
</linearGradient>
<linearGradient id="paint14_linear_153_3" x1="7734.06" y1="8836.09" x2="4256.36" y2="11806.3" gradientUnits="userSpaceOnUse">
<stop offset="0.45" stop-color="#9116FE"/>
<stop offset="1" stop-color="#F5A524"/>
</linearGradient>
<linearGradient id="paint15_linear_153_3" x1="7470.62" y1="6455.82" x2="4957.7" y2="9321.26" gradientUnits="userSpaceOnUse">
<stop offset="0.45" stop-color="#9116FE"/>
<stop offset="1" stop-color="#F5A524"/>
</linearGradient>
<linearGradient id="paint16_linear_153_3" x1="6705.46" y1="4354.08" x2="5044.86" y2="6911.17" gradientUnits="userSpaceOnUse">
<stop offset="0.45" stop-color="#9116FE"/>
<stop offset="1" stop-color="#F5A524"/>
</linearGradient>
<linearGradient id="paint17_linear_153_3" x1="5516.44" y1="2621.11" x2="4559.07" y2="4697.8" gradientUnits="userSpaceOnUse">
<stop offset="0.45" stop-color="#9116FE"/>
<stop offset="1" stop-color="#F5A524"/>
</linearGradient>
<linearGradient id="paint18_linear_153_3" x1="3996.25" y1="1330.16" x2="3563.27" y2="2791.87" gradientUnits="userSpaceOnUse">
<stop offset="0.45" stop-color="#9116FE"/>
<stop offset="1" stop-color="#F5A524"/>
</linearGradient>
<linearGradient id="paint19_linear_153_3" x1="2249.08" y1="535.138" x2="2139.7" y2="1289.5" gradientUnits="userSpaceOnUse">
<stop offset="0.45" stop-color="#9116FE"/>
<stop offset="1" stop-color="#F5A524"/>
</linearGradient>
</defs>
</svg>
